{
    "asset" : {
        "generator" : "Khronos glTF Blender I/O v1.6.16",
        "version" : "2.0"
    },
    "scene" : 0,
    "scenes" : [
        {
            "name" : "Scene",
            "nodes" : [
                0
            ]
        }
    ],
    "nodes" : [
        {
            "mesh" : 0,
            "name" : "Cube.004",
            "scale" : [
                0.7684945464134216,
                0.8888334035873413,
                0.6491293907165527
            ],
            "translation" : [
                0,
                0.9243918061256409,
                -1.8307411670684814
            ]
        }
    ],
    "materials" : [
        {
            "doubleSided" : true,
            "name" : "Material fundamebt.004",
            "pbrMetallicRoughness" : {
                "baseColorFactor" : [
                    0.24619391560554504,
                    0.22888779640197754,
                    0.1813199371099472,
                    1
                ],
                "metallicFactor" : 0,
                "roughnessFactor" : 0.5
            }
        },
        {
            "doubleSided" : true,
            "name" : "Material stena.004",
            "pbrMetallicRoughness" : {
                "baseColorFactor" : [
                    0.5704699754714966,
                    0.09769327938556671,
                    0.061696358025074005,
                    1
                ],
                "metallicFactor" : 0,
                "roughnessFactor" : 0.5
            }
        },
        {
            "doubleSided" : true,
            "name" : "Material stena 2.004",
            "pbrMetallicRoughness" : {
                "baseColorFactor" : [
                    0.8688839673995972,
                    0.8688839673995972,
                    0.8688839673995972,
                    1
                ],
                "metallicFactor" : 0,
                "roughnessFactor" : 0.5
            }
        },
        {
            "doubleSided" : true,
            "name" : "Material.005",
            "pbrMetallicRoughness" : {
                "baseColorFactor" : [
                    0.05868297070264816,
                    0.08443106710910797,
                    0.14731444418430328,
                    1
                ],
                "metallicFactor" : 0,
                "roughnessFactor" : 0.5
            }
        },
        {
            "doubleSided" : true,
            "name" : "Material ramka.004",
            "pbrMetallicRoughness" : {
                "baseColorFactor" : [
                    0.5571717023849487,
                    0.5631878972053528,
                    0.5814633965492249,
                    1
                ],
                "metallicFactor" : 0,
                "roughnessFactor" : 0.5
            }
        }
    ],
    "meshes" : [
        {
            "name" : "Cube.005",
            "primitives" : [
                {
                    "attributes" : {
                        "POSITION" : 0,
                        "NORMAL" : 1
                    },
                    "indices" : 2,
                    "material" : 0
                },
                {
                    "attributes" : {
                        "POSITION" : 3,
                        "NORMAL" : 4
                    },
                    "indices" : 5,
                    "material" : 1
                },
                {
                    "attributes" : {
                        "POSITION" : 6,
                        "NORMAL" : 7
                    },
                    "indices" : 8,
                    "material" : 2
                },
                {
                    "attributes" : {
                        "POSITION" : 9,
                        "NORMAL" : 10
                    },
                    "indices" : 11,
                    "material" : 3
                },
                {
                    "attributes" : {
                        "POSITION" : 12,
                        "NORMAL" : 13
                    },
                    "indices" : 14,
                    "material" : 4
                }
            ]
        }
    ],
    "accessors" : [
        {
            "bufferView" : 0,
            "componentType" : 5126,
            "count" : 199,
            "max" : [
                1.031101107597351,
                2.5381240844726562,
                1.6454592943191528
            ],
            "min" : [
                -1.000000238418579,
                -1,
                -1.6454596519470215
            ],
            "type" : "VEC3"
        },
        {
            "bufferView" : 1,
            "componentType" : 5126,
            "count" : 199,
            "type" : "VEC3"
        },
        {
            "bufferView" : 2,
            "componentType" : 5123,
            "count" : 303,
            "type" : "SCALAR"
        },
        {
            "bufferView" : 3,
            "componentType" : 5126,
            "count" : 8,
            "max" : [
                0.9999998807907104,
                2.621426820755005,
                1.6454600095748901
            ],
            "min" : [
                0.0014438031939789653,
                -0.8288722634315491,
                -1.6454590559005737
            ],
            "type" : "VEC3"
        },
        {
            "bufferView" : 4,
            "componentType" : 5126,
            "count" : 8,
            "type" : "VEC3"
        },
        {
            "bufferView" : 5,
            "componentType" : 5123,
            "count" : 12,
            "type" : "SCALAR"
        },
        {
            "bufferView" : 6,
            "componentType" : 5126,
            "count" : 167,
            "max" : [
                1.0377694368362427,
                2.9151723384857178,
                1.6843845844268799
            ],
            "min" : [
                -1.0258938074111938,
                -1.046669363975525,
                -1.6843851804733276
            ],
            "type" : "VEC3"
        },
        {
            "bufferView" : 7,
            "componentType" : 5126,
            "count" : 167,
            "type" : "VEC3"
        },
        {
            "bufferView" : 8,
            "componentType" : 5123,
            "count" : 255,
            "type" : "SCALAR"
        },
        {
            "bufferView" : 9,
            "componentType" : 5126,
            "count" : 176,
            "max" : [
                1.0257729291915894,
                2.880246877670288,
                1.6674224138259888
            ],
            "min" : [
                -0.5595983266830444,
                -0.8257359266281128,
                -1.6707673072814941
            ],
            "type" : "VEC3"
        },
        {
            "bufferView" : 10,
            "componentType" : 5126,
            "count" : 176,
            "type" : "VEC3"
        },
        {
            "bufferView" : 11,
            "componentType" : 5123,
            "count" : 264,
            "type" : "SCALAR"
        },
        {
            "bufferView" : 12,
            "componentType" : 5126,
            "count" : 2120,
            "max" : [
                1.2718337774276733,
                2.9325332641601562,
                1.6688942909240723
            ],
            "min" : [
                -0.5656079053878784,
                -1.0021082162857056,
                -1.672239065170288
            ],
            "type" : "VEC3"
        },
        {
            "bufferView" : 13,
            "componentType" : 5126,
            "count" : 2120,
            "type" : "VEC3"
        },
        {
            "bufferView" : 14,
            "componentType" : 5123,
            "count" : 3306,
            "type" : "SCALAR"
        }
    ],
    "bufferViews" : [
        {
            "buffer" : 0,
            "byteLength" : 2388,
            "byteOffset" : 0
        },
        {
            "buffer" : 0,
            "byteLength" : 2388,
            "byteOffset" : 2388
        },
        {
            "buffer" : 0,
            "byteLength" : 606,
            "byteOffset" : 4776
        },
        {
            "buffer" : 0,
            "byteLength" : 96,
            "byteOffset" : 5384
        },
        {
            "buffer" : 0,
            "byteLength" : 96,
            "byteOffset" : 5480
        },
        {
            "buffer" : 0,
            "byteLength" : 24,
            "byteOffset" : 5576
        },
        {
            "buffer" : 0,
            "byteLength" : 2004,
            "byteOffset" : 5600
        },
        {
            "buffer" : 0,
            "byteLength" : 2004,
            "byteOffset" : 7604
        },
        {
            "buffer" : 0,
            "byteLength" : 510,
            "byteOffset" : 9608
        },
        {
            "buffer" : 0,
            "byteLength" : 2112,
            "byteOffset" : 10120
        },
        {
            "buffer" : 0,
            "byteLength" : 2112,
            "byteOffset" : 12232
        },
        {
            "buffer" : 0,
            "byteLength" : 528,
            "byteOffset" : 14344
        },
        {
            "buffer" : 0,
            "byteLength" : 25440,
            "byteOffset" : 14872
        },
        {
            "buffer" : 0,
            "byteLength" : 25440,
            "byteOffset" : 40312
        },
        {
            "buffer" : 0,
            "byteLength" : 6612,
            "byteOffset" : 65752
        }
    ],
    "buffers" : [
        {
            "byteLength" : 72364,
            "uri" : "data:application/octet-stream;base64,"
        }
    ]
}
