{
    "asset" : {
        "generator" : "Khronos glTF Blender I/O v1.6.16",
        "version" : "2.0"
    },
    "scene" : 0,
    "scenes" : [
        {
            "name" : "Scene",
            "nodes" : [
                0
            ]
        }
    ],
    "nodes" : [
        {
            "mesh" : 0,
            "name" : "Cube.002",
            "scale" : [
                0.7684945464134216,
                0.8888334035873413,
                0.6491293907165527
            ],
            "translation" : [
                0,
                0.9243918061256409,
                -4.530246734619141
            ]
        }
    ],
    "materials" : [
        {
            "doubleSided" : true,
            "name" : "Material fundamebt.002",
            "pbrMetallicRoughness" : {
                "baseColorFactor" : [
                    0.24619391560554504,
                    0.22888779640197754,
                    0.1813199371099472,
                    1
                ],
                "metallicFactor" : 0,
                "roughnessFactor" : 0.5
            }
        },
        {
            "doubleSided" : true,
            "name" : "Material stena.002",
            "pbrMetallicRoughness" : {
                "baseColorFactor" : [
                    0.03883256018161774,
                    0.5704699754714966,
                    0.05173054710030556,
                    1
                ],
                "metallicFactor" : 0,
                "roughnessFactor" : 0.5
            }
        },
        {
            "doubleSided" : true,
            "name" : "Material stena 2.002",
            "pbrMetallicRoughness" : {
                "baseColorFactor" : [
                    0.8688839673995972,
                    0.8688839673995972,
                    0.8688839673995972,
                    1
                ],
                "metallicFactor" : 0,
                "roughnessFactor" : 0.5
            }
        },
        {
            "doubleSided" : true,
            "name" : "Material.003",
            "pbrMetallicRoughness" : {
                "baseColorFactor" : [
                    0.05868297070264816,
                    0.08443106710910797,
                    0.14731444418430328,
                    1
                ],
                "metallicFactor" : 0,
                "roughnessFactor" : 0.5
            }
        },
        {
            "doubleSided" : true,
            "name" : "Material ramka.002",
            "pbrMetallicRoughness" : {
                "baseColorFactor" : [
                    0.5571717023849487,
                    0.5631878972053528,
                    0.5814633965492249,
                    1
                ],
                "metallicFactor" : 0,
                "roughnessFactor" : 0.5
            }
        }
    ],
    "meshes" : [
        {
            "name" : "Cube.003",
            "primitives" : [
                {
                    "attributes" : {
                        "POSITION" : 0,
                        "NORMAL" : 1
                    },
                    "indices" : 2,
                    "material" : 0
                },
                {
                    "attributes" : {
                        "POSITION" : 3,
                        "NORMAL" : 4
                    },
                    "indices" : 5,
                    "material" : 1
                },
                {
                    "attributes" : {
                        "POSITION" : 6,
                        "NORMAL" : 7
                    },
                    "indices" : 8,
                    "material" : 2
                },
                {
                    "attributes" : {
                        "POSITION" : 9,
                        "NORMAL" : 10
                    },
                    "indices" : 11,
                    "material" : 3
                },
                {
                    "attributes" : {
                        "POSITION" : 12,
                        "NORMAL" : 13
                    },
                    "indices" : 14,
                    "material" : 4
                }
            ]
        }
    ],
    "accessors" : [
        {
            "bufferView" : 0,
            "componentType" : 5126,
            "count" : 214,
            "max" : [
                1.0315970182418823,
                2.5381240844726562,
                1.6823699474334717
            ],
            "min" : [
                -1.000000238418579,
                -1,
                -1.6454596519470215
            ],
            "type" : "VEC3"
        },
        {
            "bufferView" : 1,
            "componentType" : 5126,
            "count" : 214,
            "type" : "VEC3"
        },
        {
            "bufferView" : 2,
            "componentType" : 5123,
            "count" : 324,
            "type" : "SCALAR"
        },
        {
            "bufferView" : 3,
            "componentType" : 5126,
            "count" : 4,
            "max" : [
                1.0000001192092896,
                2.583702325820923,
                0.5970862507820129
            ],
            "min" : [
                0.9999997615814209,
                -0.8288722634315491,
                -0.5540727376937866
            ],
            "type" : "VEC3"
        },
        {
            "bufferView" : 4,
            "componentType" : 5126,
            "count" : 4,
            "type" : "VEC3"
        },
        {
            "bufferView" : 5,
            "componentType" : 5123,
            "count" : 6,
            "type" : "SCALAR"
        },
        {
            "bufferView" : 6,
            "componentType" : 5126,
            "count" : 106,
            "max" : [
                1.0258935689926147,
                2.5841023921966553,
                1.6843845844268799
            ],
            "min" : [
                -1.0258938074111938,
                -1.046669363975525,
                -1.6843851804733276
            ],
            "type" : "VEC3"
        },
        {
            "bufferView" : 7,
            "componentType" : 5126,
            "count" : 106,
            "type" : "VEC3"
        },
        {
            "bufferView" : 8,
            "componentType" : 5123,
            "count" : 162,
            "type" : "SCALAR"
        },
        {
            "bufferView" : 9,
            "componentType" : 5126,
            "count" : 224,
            "max" : [
                1.0261404514312744,
                2.285747766494751,
                1.6752535104751587
            ],
            "min" : [
                -0.5595983266830444,
                -0.8257359266281128,
                -1.6707673072814941
            ],
            "type" : "VEC3"
        },
        {
            "bufferView" : 10,
            "componentType" : 5126,
            "count" : 224,
            "type" : "VEC3"
        },
        {
            "bufferView" : 11,
            "componentType" : 5123,
            "count" : 336,
            "type" : "SCALAR"
        },
        {
            "bufferView" : 12,
            "componentType" : 5126,
            "count" : 2243,
            "max" : [
                1.2718337774276733,
                2.6477878093719482,
                1.6767879724502563
            ],
            "min" : [
                -0.8439497351646423,
                -1.0053496360778809,
                -1.672239065170288
            ],
            "type" : "VEC3"
        },
        {
            "bufferView" : 13,
            "componentType" : 5126,
            "count" : 2243,
            "type" : "VEC3"
        },
        {
            "bufferView" : 14,
            "componentType" : 5123,
            "count" : 3654,
            "type" : "SCALAR"
        }
    ],
    "bufferViews" : [
        {
            "buffer" : 0,
            "byteLength" : 2568,
            "byteOffset" : 0
        },
        {
            "buffer" : 0,
            "byteLength" : 2568,
            "byteOffset" : 2568
        },
        {
            "buffer" : 0,
            "byteLength" : 648,
            "byteOffset" : 5136
        },
        {
            "buffer" : 0,
            "byteLength" : 48,
            "byteOffset" : 5784
        },
        {
            "buffer" : 0,
            "byteLength" : 48,
            "byteOffset" : 5832
        },
        {
            "buffer" : 0,
            "byteLength" : 12,
            "byteOffset" : 5880
        },
        {
            "buffer" : 0,
            "byteLength" : 1272,
            "byteOffset" : 5892
        },
        {
            "buffer" : 0,
            "byteLength" : 1272,
            "byteOffset" : 7164
        },
        {
            "buffer" : 0,
            "byteLength" : 324,
            "byteOffset" : 8436
        },
        {
            "buffer" : 0,
            "byteLength" : 2688,
            "byteOffset" : 8760
        },
        {
            "buffer" : 0,
            "byteLength" : 2688,
            "byteOffset" : 11448
        },
        {
            "buffer" : 0,
            "byteLength" : 672,
            "byteOffset" : 14136
        },
        {
            "buffer" : 0,
            "byteLength" : 26916,
            "byteOffset" : 14808
        },
        {
            "buffer" : 0,
            "byteLength" : 26916,
            "byteOffset" : 41724
        },
        {
            "buffer" : 0,
            "byteLength" : 7308,
            "byteOffset" : 68640
        }
    ],
    "buffers" : [
        {
            "byteLength" : 75948,
            "uri" : "data:application/octet-stream;base64,"
        }
    ]
}
