{
    "asset" : {
        "generator" : "Khronos glTF Blender I/O v1.6.16",
        "version" : "2.0"
    },
    "scene" : 0,
    "scenes" : [
        {
            "name" : "Scene",
            "nodes" : [
                0
            ]
        }
    ],
    "nodes" : [
        {
            "mesh" : 0,
            "name" : "Cube.017",
            "scale" : [
                0.8177334070205688,
                0.6674529910087585,
                0.8403405547142029
            ],
            "translation" : [
                0.5771396160125732,
                -1.401624083518982,
                -11.726740837097168
            ]
        }
    ],
    "materials" : [
        {
            "doubleSided" : true,
            "name" : "Material fundamebt.009",
            "pbrMetallicRoughness" : {
                "baseColorFactor" : [
                    0.24619391560554504,
                    0.22888779640197754,
                    0.1813199371099472,
                    1
                ],
                "metallicFactor" : 0,
                "roughnessFactor" : 0.5
            }
        },
        {
            "doubleSided" : true,
            "name" : "Material ramka.009",
            "pbrMetallicRoughness" : {
                "baseColorFactor" : [
                    0.5571717023849487,
                    0.5631878972053528,
                    0.5814633965492249,
                    1
                ],
                "metallicFactor" : 0,
                "roughnessFactor" : 0.5
            }
        },
        {
            "doubleSided" : true,
            "name" : "Material.035",
            "pbrMetallicRoughness" : {
                "baseColorFactor" : [
                    0.021979155018925667,
                    0.021979155018925667,
                    0.021979155018925667,
                    1
                ],
                "metallicFactor" : 0,
                "roughnessFactor" : 0.5
            }
        }
    ],
    "meshes" : [
        {
            "name" : "Cube.018",
            "primitives" : [
                {
                    "attributes" : {
                        "POSITION" : 0,
                        "NORMAL" : 1
                    },
                    "indices" : 2,
                    "material" : 0
                },
                {
                    "attributes" : {
                        "POSITION" : 3,
                        "NORMAL" : 4
                    },
                    "indices" : 5,
                    "material" : 1
                },
                {
                    "attributes" : {
                        "POSITION" : 6,
                        "NORMAL" : 7
                    },
                    "indices" : 8,
                    "material" : 2
                }
            ]
        }
    ],
    "accessors" : [
        {
            "bufferView" : 0,
            "componentType" : 5126,
            "count" : 52,
            "max" : [
                0.7800087332725525,
                0.511753499507904,
                1.0911498069763184
            ],
            "min" : [
                -0.7800087332725525,
                -0.8127545118331909,
                -0.7846908569335938
            ],
            "type" : "VEC3"
        },
        {
            "bufferView" : 1,
            "componentType" : 5126,
            "count" : 52,
            "type" : "VEC3"
        },
        {
            "bufferView" : 2,
            "componentType" : 5123,
            "count" : 78,
            "type" : "SCALAR"
        },
        {
            "bufferView" : 3,
            "componentType" : 5126,
            "count" : 292,
            "max" : [
                0.8088691830635071,
                0.549823522567749,
                1.0911498069763184
            ],
            "min" : [
                -0.7800087332725525,
                -0.8928560614585876,
                -0.7846908569335938
            ],
            "type" : "VEC3"
        },
        {
            "bufferView" : 4,
            "componentType" : 5126,
            "count" : 292,
            "type" : "VEC3"
        },
        {
            "bufferView" : 5,
            "componentType" : 5123,
            "count" : 462,
            "type" : "SCALAR"
        },
        {
            "bufferView" : 6,
            "componentType" : 5126,
            "count" : 224,
            "max" : [
                0.8501816987991333,
                -0.11091168224811554,
                0.278759628534317
            ],
            "min" : [
                0.7720068693161011,
                -0.4529660940170288,
                0.007077844347804785
            ],
            "type" : "VEC3"
        },
        {
            "bufferView" : 7,
            "componentType" : 5126,
            "count" : 224,
            "type" : "VEC3"
        },
        {
            "bufferView" : 8,
            "componentType" : 5123,
            "count" : 336,
            "type" : "SCALAR"
        }
    ],
    "bufferViews" : [
        {
            "buffer" : 0,
            "byteLength" : 624,
            "byteOffset" : 0
        },
        {
            "buffer" : 0,
            "byteLength" : 624,
            "byteOffset" : 624
        },
        {
            "buffer" : 0,
            "byteLength" : 156,
            "byteOffset" : 1248
        },
        {
            "buffer" : 0,
            "byteLength" : 3504,
            "byteOffset" : 1404
        },
        {
            "buffer" : 0,
            "byteLength" : 3504,
            "byteOffset" : 4908
        },
        {
            "buffer" : 0,
            "byteLength" : 924,
            "byteOffset" : 8412
        },
        {
            "buffer" : 0,
            "byteLength" : 2688,
            "byteOffset" : 9336
        },
        {
            "buffer" : 0,
            "byteLength" : 2688,
            "byteOffset" : 12024
        },
        {
            "buffer" : 0,
            "byteLength" : 672,
            "byteOffset" : 14712
        }
    ],
    "buffers" : [
        {
            "byteLength" : 15384,
            "uri" : "data:application/octet-stream;base64,"
        }
    ]
}
