{
    "asset" : {
        "generator" : "Khronos glTF Blender I/O v1.6.16",
        "version" : "2.0"
    },
    "scene" : 0,
    "scenes" : [
        {
            "name" : "Scene",
            "nodes" : [
                0
            ]
        }
    ],
    "nodes" : [
        {
            "mesh" : 0,
            "name" : "Cube.010",
            "scale" : [
                0.6955234408378601,
                0.5677023530006409,
                0.7147520184516907
            ],
            "translation" : [
                0.5458452701568604,
                -1.3855538368225098,
                -6.611721038818359
            ]
        }
    ],
    "materials" : [
        {
            "doubleSided" : true,
            "name" : "Material stena.010",
            "pbrMetallicRoughness" : {
                "baseColorFactor" : [
                    0.1231008768081665,
                    0.7230414152145386,
                    0.15301823616027832,
                    1
                ],
                "metallicFactor" : 0,
                "roughnessFactor" : 0.5
            }
        },
        {
            "doubleSided" : true,
            "name" : "Material stena 2.010",
            "pbrMetallicRoughness" : {
                "baseColorFactor" : [
                    0.8688839673995972,
                    0.8688839673995972,
                    0.8688839673995972,
                    1
                ],
                "metallicFactor" : 0,
                "roughnessFactor" : 0.5
            }
        },
        {
            "doubleSided" : true,
            "name" : "Material fundamebt.010",
            "pbrMetallicRoughness" : {
                "baseColorFactor" : [
                    0.24619391560554504,
                    0.22888779640197754,
                    0.1813199371099472,
                    1
                ],
                "metallicFactor" : 0,
                "roughnessFactor" : 0.5
            }
        },
        {
            "doubleSided" : true,
            "name" : "Material.011",
            "pbrMetallicRoughness" : {
                "baseColorFactor" : [
                    0.05868297070264816,
                    0.08443106710910797,
                    0.14731444418430328,
                    1
                ],
                "metallicFactor" : 0,
                "roughnessFactor" : 0.5
            }
        },
        {
            "doubleSided" : true,
            "name" : "Material ramka.010",
            "pbrMetallicRoughness" : {
                "baseColorFactor" : [
                    0.5571717023849487,
                    0.5631878972053528,
                    0.5814633965492249,
                    1
                ],
                "metallicFactor" : 0,
                "roughnessFactor" : 0.5
            }
        },
        {
            "doubleSided" : true,
            "name" : "pizza 1.001",
            "pbrMetallicRoughness" : {
                "baseColorFactor" : [
                    0.31853827834129333,
                    0.23711149394512177,
                    0.04393237084150314,
                    1
                ],
                "metallicFactor" : 0,
                "roughnessFactor" : 0.5
            }
        }
    ],
    "meshes" : [
        {
            "name" : "Cube.011",
            "primitives" : [
                {
                    "attributes" : {
                        "POSITION" : 0,
                        "NORMAL" : 1
                    },
                    "indices" : 2,
                    "material" : 0
                },
                {
                    "attributes" : {
                        "POSITION" : 3,
                        "NORMAL" : 4
                    },
                    "indices" : 5,
                    "material" : 1
                },
                {
                    "attributes" : {
                        "POSITION" : 6,
                        "NORMAL" : 7
                    },
                    "indices" : 8,
                    "material" : 2
                },
                {
                    "attributes" : {
                        "POSITION" : 9,
                        "NORMAL" : 10
                    },
                    "indices" : 11,
                    "material" : 3
                },
                {
                    "attributes" : {
                        "POSITION" : 12,
                        "NORMAL" : 13
                    },
                    "indices" : 14,
                    "material" : 4
                },
                {
                    "attributes" : {
                        "POSITION" : 15,
                        "NORMAL" : 16
                    },
                    "indices" : 17,
                    "material" : 5
                }
            ]
        }
    ],
    "accessors" : [
        {
            "bufferView" : 0,
            "componentType" : 5126,
            "count" : 66,
            "max" : [
                1,
                0.5933783650398254,
                1
            ],
            "min" : [
                -1,
                -1,
                -1.4960389137268066
            ],
            "type" : "VEC3"
        },
        {
            "bufferView" : 1,
            "componentType" : 5126,
            "count" : 66,
            "type" : "VEC3"
        },
        {
            "bufferView" : 2,
            "componentType" : 5123,
            "count" : 102,
            "type" : "SCALAR"
        },
        {
            "bufferView" : 3,
            "componentType" : 5126,
            "count" : 374,
            "max" : [
                1.2918514013290405,
                0.7314823269844055,
                1
            ],
            "min" : [
                -1,
                -1.080101490020752,
                -1.4960389137268066
            ],
            "type" : "VEC3"
        },
        {
            "bufferView" : 4,
            "componentType" : 5126,
            "count" : 374,
            "type" : "VEC3"
        },
        {
            "bufferView" : 5,
            "componentType" : 5123,
            "count" : 576,
            "type" : "SCALAR"
        },
        {
            "bufferView" : 6,
            "componentType" : 5126,
            "count" : 172,
            "max" : [
                1.2918514013290405,
                0.5231412053108215,
                0.9558423757553101
            ],
            "min" : [
                -0.9558423161506653,
                -0.8051002025604248,
                -1.4518814086914062
            ],
            "type" : "VEC3"
        },
        {
            "bufferView" : 7,
            "componentType" : 5126,
            "count" : 172,
            "type" : "VEC3"
        },
        {
            "bufferView" : 8,
            "componentType" : 5123,
            "count" : 270,
            "type" : "SCALAR"
        },
        {
            "bufferView" : 9,
            "componentType" : 5126,
            "count" : 40,
            "max" : [
                1.0186991691589355,
                -0.2527102530002594,
                1.0151594877243042
            ],
            "min" : [
                -0.16107437014579773,
                -0.7787446975708008,
                -1.501008152961731
            ],
            "type" : "VEC3"
        },
        {
            "bufferView" : 10,
            "componentType" : 5126,
            "count" : 40,
            "type" : "VEC3"
        },
        {
            "bufferView" : 11,
            "componentType" : 5123,
            "count" : 60,
            "type" : "SCALAR"
        },
        {
            "bufferView" : 12,
            "componentType" : 5126,
            "count" : 444,
            "max" : [
                1.0931293964385986,
                0.6714266538619995,
                1.016496181488037
            ],
            "min" : [
                -0.5617579221725464,
                -1.0007306337356567,
                -1.5023449659347534
            ],
            "type" : "VEC3"
        },
        {
            "bufferView" : 13,
            "componentType" : 5126,
            "count" : 444,
            "type" : "VEC3"
        },
        {
            "bufferView" : 14,
            "componentType" : 5123,
            "count" : 702,
            "type" : "SCALAR"
        },
        {
            "bufferView" : 15,
            "componentType" : 5126,
            "count" : 96,
            "max" : [
                1.2602277994155884,
                0.5737505555152893,
                -0.046463847160339355
            ],
            "min" : [
                1.0257867574691772,
                0.049067169427871704,
                -0.3643658459186554
            ],
            "type" : "VEC3"
        },
        {
            "bufferView" : 16,
            "componentType" : 5126,
            "count" : 96,
            "type" : "VEC3"
        },
        {
            "bufferView" : 17,
            "componentType" : 5123,
            "count" : 144,
            "type" : "SCALAR"
        }
    ],
    "bufferViews" : [
        {
            "buffer" : 0,
            "byteLength" : 792,
            "byteOffset" : 0
        },
        {
            "buffer" : 0,
            "byteLength" : 792,
            "byteOffset" : 792
        },
        {
            "buffer" : 0,
            "byteLength" : 204,
            "byteOffset" : 1584
        },
        {
            "buffer" : 0,
            "byteLength" : 4488,
            "byteOffset" : 1788
        },
        {
            "buffer" : 0,
            "byteLength" : 4488,
            "byteOffset" : 6276
        },
        {
            "buffer" : 0,
            "byteLength" : 1152,
            "byteOffset" : 10764
        },
        {
            "buffer" : 0,
            "byteLength" : 2064,
            "byteOffset" : 11916
        },
        {
            "buffer" : 0,
            "byteLength" : 2064,
            "byteOffset" : 13980
        },
        {
            "buffer" : 0,
            "byteLength" : 540,
            "byteOffset" : 16044
        },
        {
            "buffer" : 0,
            "byteLength" : 480,
            "byteOffset" : 16584
        },
        {
            "buffer" : 0,
            "byteLength" : 480,
            "byteOffset" : 17064
        },
        {
            "buffer" : 0,
            "byteLength" : 120,
            "byteOffset" : 17544
        },
        {
            "buffer" : 0,
            "byteLength" : 5328,
            "byteOffset" : 17664
        },
        {
            "buffer" : 0,
            "byteLength" : 5328,
            "byteOffset" : 22992
        },
        {
            "buffer" : 0,
            "byteLength" : 1404,
            "byteOffset" : 28320
        },
        {
            "buffer" : 0,
            "byteLength" : 1152,
            "byteOffset" : 29724
        },
        {
            "buffer" : 0,
            "byteLength" : 1152,
            "byteOffset" : 30876
        },
        {
            "buffer" : 0,
            "byteLength" : 288,
            "byteOffset" : 32028
        }
    ],
    "buffers" : [
        {
            "byteLength" : 32316,
            "uri" : "data:application/octet-stream;base64,"
        }
    ]
}
