{
    "asset" : {
        "generator" : "Khronos glTF Blender I/O v1.6.16",
        "version" : "2.0"
    },
    "scene" : 0,
    "scenes" : [
        {
            "name" : "Scene",
            "nodes" : [
                0
            ]
        }
    ],
    "nodes" : [
        {
            "mesh" : 0,
            "name" : "Cube.009",
            "scale" : [
                0.6955234408378601,
                0.5677023530006409,
                0.7147520184516907
            ],
            "translation" : [
                0.5458452701568604,
                -1.3855538368225098,
                -4.481405258178711
            ]
        }
    ],
    "materials" : [
        {
            "doubleSided" : true,
            "name" : "Material stena.009",
            "pbrMetallicRoughness" : {
                "baseColorFactor" : [
                    0.8688839673995972,
                    0.5370148420333862,
                    0.01257527805864811,
                    1
                ],
                "metallicFactor" : 0,
                "roughnessFactor" : 0.5
            }
        },
        {
            "doubleSided" : true,
            "name" : "Material stena 2.009",
            "pbrMetallicRoughness" : {
                "baseColorFactor" : [
                    0.8688839673995972,
                    0.8688839673995972,
                    0.8688839673995972,
                    1
                ],
                "metallicFactor" : 0,
                "roughnessFactor" : 0.5
            }
        },
        {
            "doubleSided" : true,
            "name" : "Material fundamebt.009",
            "pbrMetallicRoughness" : {
                "baseColorFactor" : [
                    0.24619391560554504,
                    0.22888779640197754,
                    0.1813199371099472,
                    1
                ],
                "metallicFactor" : 0,
                "roughnessFactor" : 0.5
            }
        },
        {
            "doubleSided" : true,
            "name" : "Material.010",
            "pbrMetallicRoughness" : {
                "baseColorFactor" : [
                    0.05868297070264816,
                    0.08443106710910797,
                    0.14731444418430328,
                    1
                ],
                "metallicFactor" : 0,
                "roughnessFactor" : 0.5
            }
        },
        {
            "doubleSided" : true,
            "name" : "Material ramka.009",
            "pbrMetallicRoughness" : {
                "baseColorFactor" : [
                    0.5571717023849487,
                    0.5631878972053528,
                    0.5814633965492249,
                    1
                ],
                "metallicFactor" : 0,
                "roughnessFactor" : 0.5
            }
        },
        {
            "doubleSided" : true,
            "name" : "Material red",
            "pbrMetallicRoughness" : {
                "baseColorFactor" : [
                    0.6981911063194275,
                    0.016772815957665443,
                    0.003022173885256052,
                    1
                ],
                "metallicFactor" : 0,
                "roughnessFactor" : 0.5
            }
        },
        {
            "doubleSided" : true,
            "name" : "pizza 1",
            "pbrMetallicRoughness" : {
                "baseColorFactor" : [
                    0.31853827834129333,
                    0.23711149394512177,
                    0.04393237084150314,
                    1
                ],
                "metallicFactor" : 0,
                "roughnessFactor" : 0.5
            }
        },
        {
            "doubleSided" : true,
            "name" : "green",
            "pbrMetallicRoughness" : {
                "baseColorFactor" : [
                    0.022664200514554977,
                    0.4019683003425598,
                    0.006657273042947054,
                    1
                ],
                "metallicFactor" : 0,
                "roughnessFactor" : 0.5
            }
        }
    ],
    "meshes" : [
        {
            "name" : "Cube.010",
            "primitives" : [
                {
                    "attributes" : {
                        "POSITION" : 0,
                        "NORMAL" : 1
                    },
                    "indices" : 2,
                    "material" : 0
                },
                {
                    "attributes" : {
                        "POSITION" : 3,
                        "NORMAL" : 4
                    },
                    "indices" : 5,
                    "material" : 1
                },
                {
                    "attributes" : {
                        "POSITION" : 6,
                        "NORMAL" : 7
                    },
                    "indices" : 8,
                    "material" : 2
                },
                {
                    "attributes" : {
                        "POSITION" : 9,
                        "NORMAL" : 10
                    },
                    "indices" : 11,
                    "material" : 3
                },
                {
                    "attributes" : {
                        "POSITION" : 12,
                        "NORMAL" : 13
                    },
                    "indices" : 14,
                    "material" : 4
                },
                {
                    "attributes" : {
                        "POSITION" : 15,
                        "NORMAL" : 16
                    },
                    "indices" : 17,
                    "material" : 5
                },
                {
                    "attributes" : {
                        "POSITION" : 18,
                        "NORMAL" : 19
                    },
                    "indices" : 20,
                    "material" : 6
                },
                {
                    "attributes" : {
                        "POSITION" : 21,
                        "NORMAL" : 22
                    },
                    "indices" : 23,
                    "material" : 7
                }
            ]
        }
    ],
    "accessors" : [
        {
            "bufferView" : 0,
            "componentType" : 5126,
            "count" : 186,
            "max" : [
                1.1043331623077393,
                0.6177918314933777,
                2.827951192855835
            ],
            "min" : [
                -1,
                -1,
                -1.4960389137268066
            ],
            "type" : "VEC3"
        },
        {
            "bufferView" : 1,
            "componentType" : 5126,
            "count" : 186,
            "type" : "VEC3"
        },
        {
            "bufferView" : 2,
            "componentType" : 5123,
            "count" : 282,
            "type" : "SCALAR"
        },
        {
            "bufferView" : 3,
            "componentType" : 5126,
            "count" : 52,
            "max" : [
                1.3026607036590576,
                0.0892929807305336,
                1
            ],
            "min" : [
                -1,
                -0.366438627243042,
                -1.4960389137268066
            ],
            "type" : "VEC3"
        },
        {
            "bufferView" : 4,
            "componentType" : 5126,
            "count" : 52,
            "type" : "VEC3"
        },
        {
            "bufferView" : 5,
            "componentType" : 5123,
            "count" : 78,
            "type" : "SCALAR"
        },
        {
            "bufferView" : 6,
            "componentType" : 5126,
            "count" : 182,
            "max" : [
                1.2066622972488403,
                0.8527178764343262,
                2.827951192855835
            ],
            "min" : [
                -1,
                -1.080101490020752,
                -1.4960389137268066
            ],
            "type" : "VEC3"
        },
        {
            "bufferView" : 7,
            "componentType" : 5126,
            "count" : 182,
            "type" : "VEC3"
        },
        {
            "bufferView" : 8,
            "componentType" : 5123,
            "count" : 276,
            "type" : "SCALAR"
        },
        {
            "bufferView" : 9,
            "componentType" : 5126,
            "count" : 72,
            "max" : [
                1.0186991691589355,
                -0.1180678978562355,
                2.836589813232422
            ],
            "min" : [
                -0.8104623556137085,
                -0.7787446975708008,
                -1.5074974298477173
            ],
            "type" : "VEC3"
        },
        {
            "bufferView" : 10,
            "componentType" : 5126,
            "count" : 72,
            "type" : "VEC3"
        },
        {
            "bufferView" : 11,
            "componentType" : 5123,
            "count" : 108,
            "type" : "SCALAR"
        },
        {
            "bufferView" : 12,
            "componentType" : 5126,
            "count" : 814,
            "max" : [
                1.2427864074707031,
                0.6766754984855652,
                2.8379271030426025
            ],
            "min" : [
                -0.8171022534370422,
                -1.0007306337356567,
                -1.5088337659835815
            ],
            "type" : "VEC3"
        },
        {
            "bufferView" : 13,
            "componentType" : 5126,
            "count" : 814,
            "type" : "VEC3"
        },
        {
            "bufferView" : 14,
            "componentType" : 5123,
            "count" : 1260,
            "type" : "SCALAR"
        },
        {
            "bufferView" : 15,
            "componentType" : 5126,
            "count" : 108,
            "max" : [
                1.3026607036590576,
                0.658109188079834,
                0.09900578111410141
            ],
            "min" : [
                0.9894519448280334,
                -0.366438627243042,
                -0.4035665690898895
            ],
            "type" : "VEC3"
        },
        {
            "bufferView" : 16,
            "componentType" : 5126,
            "count" : 108,
            "type" : "VEC3"
        },
        {
            "bufferView" : 17,
            "componentType" : 5123,
            "count" : 162,
            "type" : "SCALAR"
        },
        {
            "bufferView" : 18,
            "componentType" : 5126,
            "count" : 72,
            "max" : [
                1.106608271598816,
                0.7401676177978516,
                0.05429723858833313
            ],
            "min" : [
                0.9988905787467957,
                0.1736765056848526,
                -0.3978787660598755
            ],
            "type" : "VEC3"
        },
        {
            "bufferView" : 19,
            "componentType" : 5126,
            "count" : 72,
            "type" : "VEC3"
        },
        {
            "bufferView" : 20,
            "componentType" : 5123,
            "count" : 132,
            "type" : "SCALAR"
        },
        {
            "bufferView" : 21,
            "componentType" : 5126,
            "count" : 48,
            "max" : [
                1.0958516597747803,
                0.4974125921726227,
                -0.014044927433133125
            ],
            "min" : [
                1.0566303730010986,
                0.2964993715286255,
                -0.33539941906929016
            ],
            "type" : "VEC3"
        },
        {
            "bufferView" : 22,
            "componentType" : 5126,
            "count" : 48,
            "type" : "VEC3"
        },
        {
            "bufferView" : 23,
            "componentType" : 5123,
            "count" : 72,
            "type" : "SCALAR"
        }
    ],
    "bufferViews" : [
        {
            "buffer" : 0,
            "byteLength" : 2232,
            "byteOffset" : 0
        },
        {
            "buffer" : 0,
            "byteLength" : 2232,
            "byteOffset" : 2232
        },
        {
            "buffer" : 0,
            "byteLength" : 564,
            "byteOffset" : 4464
        },
        {
            "buffer" : 0,
            "byteLength" : 624,
            "byteOffset" : 5028
        },
        {
            "buffer" : 0,
            "byteLength" : 624,
            "byteOffset" : 5652
        },
        {
            "buffer" : 0,
            "byteLength" : 156,
            "byteOffset" : 6276
        },
        {
            "buffer" : 0,
            "byteLength" : 2184,
            "byteOffset" : 6432
        },
        {
            "buffer" : 0,
            "byteLength" : 2184,
            "byteOffset" : 8616
        },
        {
            "buffer" : 0,
            "byteLength" : 552,
            "byteOffset" : 10800
        },
        {
            "buffer" : 0,
            "byteLength" : 864,
            "byteOffset" : 11352
        },
        {
            "buffer" : 0,
            "byteLength" : 864,
            "byteOffset" : 12216
        },
        {
            "buffer" : 0,
            "byteLength" : 216,
            "byteOffset" : 13080
        },
        {
            "buffer" : 0,
            "byteLength" : 9768,
            "byteOffset" : 13296
        },
        {
            "buffer" : 0,
            "byteLength" : 9768,
            "byteOffset" : 23064
        },
        {
            "buffer" : 0,
            "byteLength" : 2520,
            "byteOffset" : 32832
        },
        {
            "buffer" : 0,
            "byteLength" : 1296,
            "byteOffset" : 35352
        },
        {
            "buffer" : 0,
            "byteLength" : 1296,
            "byteOffset" : 36648
        },
        {
            "buffer" : 0,
            "byteLength" : 324,
            "byteOffset" : 37944
        },
        {
            "buffer" : 0,
            "byteLength" : 864,
            "byteOffset" : 38268
        },
        {
            "buffer" : 0,
            "byteLength" : 864,
            "byteOffset" : 39132
        },
        {
            "buffer" : 0,
            "byteLength" : 264,
            "byteOffset" : 39996
        },
        {
            "buffer" : 0,
            "byteLength" : 576,
            "byteOffset" : 40260
        },
        {
            "buffer" : 0,
            "byteLength" : 576,
            "byteOffset" : 40836
        },
        {
            "buffer" : 0,
            "byteLength" : 144,
            "byteOffset" : 41412
        }
    ],
    "buffers" : [
        {
            "byteLength" : 41556,
            "uri" : "data:application/octet-stream;base64,"
        }
    ]
}
