{
    "asset" : {
        "generator" : "Khronos glTF Blender I/O v1.6.16",
        "version" : "2.0"
    },
    "scene" : 0,
    "scenes" : [
        {
            "name" : "Scene",
            "nodes" : [
                0
            ]
        }
    ],
    "nodes" : [
        {
            "mesh" : 0,
            "name" : "Cylinder.008",
            "rotation" : [
                0,
                -0.6170638203620911,
                0,
                0.7869130969047546
            ],
            "scale" : [
                0.1393386721611023,
                0.2513786554336548,
                0.1393386721611023
            ],
            "translation" : [
                0,
                4.552818298339844,
                -10.881499290466309
            ]
        }
    ],
    "materials" : [
        {
            "doubleSided" : true,
            "name" : "Material.021",
            "pbrMetallicRoughness" : {
                "baseColorFactor" : [
                    0.07657688856124878,
                    0.030995558947324753,
                    0,
                    1
                ],
                "metallicFactor" : 0,
                "roughnessFactor" : 0.5
            }
        },
        {
            "doubleSided" : true,
            "name" : "green.003",
            "pbrMetallicRoughness" : {
                "baseColorFactor" : [
                    0.008988645859062672,
                    0.08000855892896652,
                    0,
                    1
                ],
                "metallicFactor" : 0,
                "roughnessFactor" : 0.5
            }
        }
    ],
    "meshes" : [
        {
            "name" : "Cylinder.005",
            "primitives" : [
                {
                    "attributes" : {
                        "POSITION" : 0,
                        "NORMAL" : 1
                    },
                    "indices" : 2,
                    "material" : 0
                },
                {
                    "attributes" : {
                        "POSITION" : 3,
                        "NORMAL" : 4
                    },
                    "indices" : 5,
                    "material" : 1
                }
            ]
        }
    ],
    "accessors" : [
        {
            "bufferView" : 0,
            "componentType" : 5126,
            "count" : 260,
            "max" : [
                1.087037444114685,
                2.0662431716918945,
                1.864173173904419
            ],
            "min" : [
                -0.9546295404434204,
                -1,
                -1.1439790725708008
            ],
            "type" : "VEC3"
        },
        {
            "bufferView" : 1,
            "componentType" : 5126,
            "count" : 260,
            "type" : "VEC3"
        },
        {
            "bufferView" : 2,
            "componentType" : 5123,
            "count" : 384,
            "type" : "SCALAR"
        },
        {
            "bufferView" : 3,
            "componentType" : 5126,
            "count" : 720,
            "max" : [
                5.209440231323242,
                6.723802089691162,
                4.84459924697876
            ],
            "min" : [
                -4.922752857208252,
                0.36839011311531067,
                -4.220953464508057
            ],
            "type" : "VEC3"
        },
        {
            "bufferView" : 4,
            "componentType" : 5126,
            "count" : 720,
            "type" : "VEC3"
        },
        {
            "bufferView" : 5,
            "componentType" : 5123,
            "count" : 720,
            "type" : "SCALAR"
        }
    ],
    "bufferViews" : [
        {
            "buffer" : 0,
            "byteLength" : 3120,
            "byteOffset" : 0
        },
        {
            "buffer" : 0,
            "byteLength" : 3120,
            "byteOffset" : 3120
        },
        {
            "buffer" : 0,
            "byteLength" : 768,
            "byteOffset" : 6240
        },
        {
            "buffer" : 0,
            "byteLength" : 8640,
            "byteOffset" : 7008
        },
        {
            "buffer" : 0,
            "byteLength" : 8640,
            "byteOffset" : 15648
        },
        {
            "buffer" : 0,
            "byteLength" : 1440,
            "byteOffset" : 24288
        }
    ],
    "buffers" : [
        {
            "byteLength" : 25728,
            "uri" : "data:application/octet-stream;base64,"
        }
    ]
}
