{
    "asset" : {
        "generator" : "Khronos glTF Blender I/O v1.6.16",
        "version" : "2.0"
    },
    "scene" : 0,
    "scenes" : [
        {
            "name" : "Scene",
            "nodes" : [
                0
            ]
        }
    ],
    "nodes" : [
        {
            "mesh" : 0,
            "name" : "Cylinder.004",
            "rotation" : [
                0,
                -0.16443708539009094,
                0,
                0.9863876700401306
            ],
            "scale" : [
                0.08703135699033737,
                0.402059942483902,
                0.08703135699033737
            ],
            "translation" : [
                0,
                4.643952369689941,
                -12.17023754119873
            ]
        }
    ],
    "materials" : [
        {
            "doubleSided" : true,
            "name" : "brown.005",
            "pbrMetallicRoughness" : {
                "baseColorFactor" : [
                    0.08000855892896652,
                    0.032424699515104294,
                    0,
                    1
                ],
                "metallicFactor" : 0,
                "roughnessFactor" : 0.5
            }
        },
        {
            "doubleSided" : true,
            "name" : "green.008",
            "pbrMetallicRoughness" : {
                "baseColorFactor" : [
                    0.0013448561076074839,
                    0.09850060194730759,
                    0,
                    1
                ],
                "metallicFactor" : 0,
                "roughnessFactor" : 0.5
            }
        }
    ],
    "meshes" : [
        {
            "name" : "Cylinder.011",
            "primitives" : [
                {
                    "attributes" : {
                        "POSITION" : 0,
                        "NORMAL" : 1
                    },
                    "indices" : 2,
                    "material" : 0
                },
                {
                    "attributes" : {
                        "POSITION" : 3,
                        "NORMAL" : 4
                    },
                    "indices" : 5,
                    "material" : 1
                }
            ]
        }
    ],
    "accessors" : [
        {
            "bufferView" : 0,
            "componentType" : 5126,
            "count" : 127,
            "max" : [
                0.9691517353057861,
                1,
                2.220151424407959
            ],
            "min" : [
                -0.5922555327415466,
                -1,
                -0.6838777661323547
            ],
            "type" : "VEC3"
        },
        {
            "bufferView" : 1,
            "componentType" : 5126,
            "count" : 127,
            "type" : "VEC3"
        },
        {
            "bufferView" : 2,
            "componentType" : 5123,
            "count" : 192,
            "type" : "SCALAR"
        },
        {
            "bufferView" : 3,
            "componentType" : 5126,
            "count" : 720,
            "max" : [
                4.731669902801514,
                3.406348466873169,
                5.591935157775879
            ],
            "min" : [
                -5.566221714019775,
                0.21971583366394043,
                -5.689463138580322
            ],
            "type" : "VEC3"
        },
        {
            "bufferView" : 4,
            "componentType" : 5126,
            "count" : 720,
            "type" : "VEC3"
        },
        {
            "bufferView" : 5,
            "componentType" : 5123,
            "count" : 720,
            "type" : "SCALAR"
        }
    ],
    "bufferViews" : [
        {
            "buffer" : 0,
            "byteLength" : 1524,
            "byteOffset" : 0
        },
        {
            "buffer" : 0,
            "byteLength" : 1524,
            "byteOffset" : 1524
        },
        {
            "buffer" : 0,
            "byteLength" : 384,
            "byteOffset" : 3048
        },
        {
            "buffer" : 0,
            "byteLength" : 8640,
            "byteOffset" : 3432
        },
        {
            "buffer" : 0,
            "byteLength" : 8640,
            "byteOffset" : 12072
        },
        {
            "buffer" : 0,
            "byteLength" : 1440,
            "byteOffset" : 20712
        }
    ],
    "buffers" : [
        {
            "byteLength" : 22152,
            "uri" : "data:application/octet-stream;base64,"
        }
    ]
}
