{
    "asset" : {
        "generator" : "Khronos glTF Blender I/O v1.6.16",
        "version" : "2.0"
    },
    "scene" : 0,
    "scenes" : [
        {
            "name" : "Scene",
            "nodes" : [
                0
            ]
        }
    ],
    "nodes" : [
        {
            "mesh" : 0,
            "name" : "Cube.018",
            "scale" : [
                0.7684945464134216,
                0.8888334035873413,
                0.6491293907165527
            ],
            "translation" : [
                0,
                4.843009948730469,
                4.003529071807861
            ]
        }
    ],
    "materials" : [
        {
            "doubleSided" : true,
            "name" : "Material fundamebt.008",
            "pbrMetallicRoughness" : {
                "baseColorFactor" : [
                    0.24619391560554504,
                    0.22888779640197754,
                    0.1813199371099472,
                    1
                ],
                "metallicFactor" : 0,
                "roughnessFactor" : 0.5
            }
        },
        {
            "doubleSided" : true,
            "name" : "Material stena 2.008",
            "pbrMetallicRoughness" : {
                "baseColorFactor" : [
                    0.8688839673995972,
                    0.8688839673995972,
                    0.8688839673995972,
                    1
                ],
                "metallicFactor" : 0,
                "roughnessFactor" : 0.5
            }
        },
        {
            "doubleSided" : true,
            "name" : "Material.009",
            "pbrMetallicRoughness" : {
                "baseColorFactor" : [
                    0.05868297070264816,
                    0.08443106710910797,
                    0.14731444418430328,
                    1
                ],
                "metallicFactor" : 0,
                "roughnessFactor" : 0.5
            }
        },
        {
            "doubleSided" : true,
            "name" : "Material ramka.008",
            "pbrMetallicRoughness" : {
                "baseColorFactor" : [
                    0.5571717023849487,
                    0.5631878972053528,
                    0.5814633965492249,
                    1
                ],
                "metallicFactor" : 0,
                "roughnessFactor" : 0.5
            }
        },
        {
            "doubleSided" : true,
            "name" : "krovla",
            "pbrMetallicRoughness" : {
                "baseColorFactor" : [
                    0.8000000715255737,
                    0.032250139862298965,
                    0.012741673737764359,
                    1
                ],
                "metallicFactor" : 0,
                "roughnessFactor" : 0.5
            }
        }
    ],
    "meshes" : [
        {
            "name" : "Cube.019",
            "primitives" : [
                {
                    "attributes" : {
                        "POSITION" : 0,
                        "NORMAL" : 1
                    },
                    "indices" : 2,
                    "material" : 0
                },
                {
                    "attributes" : {
                        "POSITION" : 3,
                        "NORMAL" : 4
                    },
                    "indices" : 5,
                    "material" : 1
                },
                {
                    "attributes" : {
                        "POSITION" : 6,
                        "NORMAL" : 7
                    },
                    "indices" : 8,
                    "material" : 2
                },
                {
                    "attributes" : {
                        "POSITION" : 9,
                        "NORMAL" : 10
                    },
                    "indices" : 11,
                    "material" : 3
                },
                {
                    "attributes" : {
                        "POSITION" : 12,
                        "NORMAL" : 13
                    },
                    "indices" : 14,
                    "material" : 4
                }
            ]
        }
    ],
    "accessors" : [
        {
            "bufferView" : 0,
            "componentType" : 5126,
            "count" : 116,
            "max" : [
                1.8755521774291992,
                2.322364568710327,
                3.5789358615875244
            ],
            "min" : [
                -1.5860432386398315,
                -1,
                -3.350104808807373
            ],
            "type" : "VEC3"
        },
        {
            "bufferView" : 1,
            "componentType" : 5126,
            "count" : 116,
            "type" : "VEC3"
        },
        {
            "bufferView" : 2,
            "componentType" : 5123,
            "count" : 174,
            "type" : "SCALAR"
        },
        {
            "bufferView" : 3,
            "componentType" : 5126,
            "count" : 158,
            "max" : [
                1.873105764389038,
                2.322364568710327,
                3.5809500217437744
            ],
            "min" : [
                -1.6119368076324463,
                -1.046669363975525,
                -3.3890304565429688
            ],
            "type" : "VEC3"
        },
        {
            "bufferView" : 4,
            "componentType" : 5126,
            "count" : 158,
            "type" : "VEC3"
        },
        {
            "bufferView" : 5,
            "componentType" : 5123,
            "count" : 246,
            "type" : "SCALAR"
        },
        {
            "bufferView" : 6,
            "componentType" : 5126,
            "count" : 384,
            "max" : [
                1.8702239990234375,
                2.43673038482666,
                3.571819543838501
            ],
            "min" : [
                -1.6010947227478027,
                -0.7815878987312317,
                -3.3754124641418457
            ],
            "type" : "VEC3"
        },
        {
            "bufferView" : 7,
            "componentType" : 5126,
            "count" : 384,
            "type" : "VEC3"
        },
        {
            "bufferView" : 8,
            "componentType" : 5123,
            "count" : 576,
            "type" : "SCALAR"
        },
        {
            "bufferView" : 9,
            "componentType" : 5126,
            "count" : 3398,
            "max" : [
                2.118509531021118,
                2.541351795196533,
                3.7756400108337402
            ],
            "min" : [
                -1.6023380756378174,
                -1.0053496360778809,
                -3.3768844604492188
            ],
            "type" : "VEC3"
        },
        {
            "bufferView" : 10,
            "componentType" : 5126,
            "count" : 3398,
            "type" : "VEC3"
        },
        {
            "bufferView" : 11,
            "componentType" : 5123,
            "count" : 5298,
            "type" : "SCALAR"
        },
        {
            "bufferView" : 12,
            "componentType" : 5126,
            "count" : 80,
            "max" : [
                1.8730262517929077,
                2.2623136043548584,
                0.18808528780937195
            ],
            "min" : [
                1.8310569524765015,
                1.9727461338043213,
                -0.18339990079402924
            ],
            "type" : "VEC3"
        },
        {
            "bufferView" : 13,
            "componentType" : 5126,
            "count" : 80,
            "type" : "VEC3"
        },
        {
            "bufferView" : 14,
            "componentType" : 5123,
            "count" : 132,
            "type" : "SCALAR"
        }
    ],
    "bufferViews" : [
        {
            "buffer" : 0,
            "byteLength" : 1392,
            "byteOffset" : 0
        },
        {
            "buffer" : 0,
            "byteLength" : 1392,
            "byteOffset" : 1392
        },
        {
            "buffer" : 0,
            "byteLength" : 348,
            "byteOffset" : 2784
        },
        {
            "buffer" : 0,
            "byteLength" : 1896,
            "byteOffset" : 3132
        },
        {
            "buffer" : 0,
            "byteLength" : 1896,
            "byteOffset" : 5028
        },
        {
            "buffer" : 0,
            "byteLength" : 492,
            "byteOffset" : 6924
        },
        {
            "buffer" : 0,
            "byteLength" : 4608,
            "byteOffset" : 7416
        },
        {
            "buffer" : 0,
            "byteLength" : 4608,
            "byteOffset" : 12024
        },
        {
            "buffer" : 0,
            "byteLength" : 1152,
            "byteOffset" : 16632
        },
        {
            "buffer" : 0,
            "byteLength" : 40776,
            "byteOffset" : 17784
        },
        {
            "buffer" : 0,
            "byteLength" : 40776,
            "byteOffset" : 58560
        },
        {
            "buffer" : 0,
            "byteLength" : 10596,
            "byteOffset" : 99336
        },
        {
            "buffer" : 0,
            "byteLength" : 960,
            "byteOffset" : 109932
        },
        {
            "buffer" : 0,
            "byteLength" : 960,
            "byteOffset" : 110892
        },
        {
            "buffer" : 0,
            "byteLength" : 264,
            "byteOffset" : 111852
        }
    ],
    "buffers" : [
        {
            "byteLength" : 112116,
            "uri" : "data:application/octet-stream;base64,"
        }
    ]
}
