{
    "asset" : {
        "generator" : "Khronos glTF Blender I/O v1.6.16",
        "version" : "2.0"
    },
    "scene" : 0,
    "scenes" : [
        {
            "name" : "Scene",
            "nodes" : [
                0
            ]
        }
    ],
    "nodes" : [
        {
            "mesh" : 0,
            "name" : "Cube.013",
            "scale" : [
                0.7684945464134216,
                0.8888334035873413,
                0.6491293907165527
            ],
            "translation" : [
                0.6888978481292725,
                -1.6173663139343262,
                -1.3387672901153564
            ]
        }
    ],
    "materials" : [
        {
            "doubleSided" : true,
            "name" : "Material fundamebt.013",
            "pbrMetallicRoughness" : {
                "baseColorFactor" : [
                    0.13758333027362823,
                    0.12818002700805664,
                    0.10226686298847198,
                    1
                ],
                "metallicFactor" : 0,
                "roughnessFactor" : 0.5
            }
        },
        {
            "doubleSided" : true,
            "name" : "krovla.001",
            "pbrMetallicRoughness" : {
                "baseColorFactor" : [
                    0.8000000715255737,
                    0.032250139862298965,
                    0.012741673737764359,
                    1
                ],
                "metallicFactor" : 0,
                "roughnessFactor" : 0.5
            }
        },
        {
            "doubleSided" : true,
            "name" : "Material stena 2.013",
            "pbrMetallicRoughness" : {
                "baseColorFactor" : [
                    0.8688839673995972,
                    0.8688839673995972,
                    0.8688839673995972,
                    1
                ],
                "metallicFactor" : 0,
                "roughnessFactor" : 0.5
            }
        },
        {
            "doubleSided" : true,
            "name" : "Material.014",
            "pbrMetallicRoughness" : {
                "baseColorFactor" : [
                    0.05868297070264816,
                    0.08443106710910797,
                    0.14731444418430328,
                    1
                ],
                "metallicFactor" : 0,
                "roughnessFactor" : 0.5
            }
        },
        {
            "doubleSided" : true,
            "name" : "Material ramka.013",
            "pbrMetallicRoughness" : {
                "baseColorFactor" : [
                    0.10247348248958588,
                    0.010581737384200096,
                    0.003102778922766447,
                    1
                ],
                "metallicFactor" : 0,
                "roughnessFactor" : 0.5
            }
        }
    ],
    "meshes" : [
        {
            "name" : "Cube.014",
            "primitives" : [
                {
                    "attributes" : {
                        "POSITION" : 0,
                        "NORMAL" : 1
                    },
                    "indices" : 2,
                    "material" : 0
                },
                {
                    "attributes" : {
                        "POSITION" : 3,
                        "NORMAL" : 4
                    },
                    "indices" : 5,
                    "material" : 1
                },
                {
                    "attributes" : {
                        "POSITION" : 6,
                        "NORMAL" : 7
                    },
                    "indices" : 8,
                    "material" : 2
                },
                {
                    "attributes" : {
                        "POSITION" : 9,
                        "NORMAL" : 10
                    },
                    "indices" : 11,
                    "material" : 3
                },
                {
                    "attributes" : {
                        "POSITION" : 12,
                        "NORMAL" : 13
                    },
                    "indices" : 14,
                    "material" : 4
                }
            ]
        }
    ],
    "accessors" : [
        {
            "bufferView" : 0,
            "componentType" : 5126,
            "count" : 234,
            "max" : [
                1.2865300178527832,
                1.3380314111709595,
                1.494889259338379
            ],
            "min" : [
                -1.1054531335830688,
                -0.42278945446014404,
                -1.0078096389770508
            ],
            "type" : "VEC3"
        },
        {
            "bufferView" : 1,
            "componentType" : 5126,
            "count" : 234,
            "type" : "VEC3"
        },
        {
            "bufferView" : 2,
            "componentType" : 5123,
            "count" : 390,
            "type" : "SCALAR"
        },
        {
            "bufferView" : 3,
            "componentType" : 5126,
            "count" : 20,
            "max" : [
                1.1860315799713135,
                1.2531578540802002,
                1.5861024856567383
            ],
            "min" : [
                -1.1860318183898926,
                0.3759148120880127,
                -1.0990228652954102
            ],
            "type" : "VEC3"
        },
        {
            "bufferView" : 4,
            "componentType" : 5126,
            "count" : 20,
            "type" : "VEC3"
        },
        {
            "bufferView" : 5,
            "componentType" : 5123,
            "count" : 30,
            "type" : "SCALAR"
        },
        {
            "bufferView" : 6,
            "componentType" : 5126,
            "count" : 18,
            "max" : [
                1.083045482635498,
                0.4118174910545349,
                1.4695253372192383
            ],
            "min" : [
                -1.0830457210540771,
                -0.2630048394203186,
                -0.9824447631835938
            ],
            "type" : "VEC3"
        },
        {
            "bufferView" : 7,
            "componentType" : 5126,
            "count" : 18,
            "type" : "VEC3"
        },
        {
            "bufferView" : 8,
            "componentType" : 5123,
            "count" : 30,
            "type" : "SCALAR"
        },
        {
            "bufferView" : 9,
            "componentType" : 5126,
            "count" : 32,
            "max" : [
                1.0988569259643555,
                0.19579580426216125,
                1.4900598526000977
            ],
            "min" : [
                -0.40742984414100647,
                -0.09931030869483948,
                -0.9987373352050781
            ],
            "type" : "VEC3"
        },
        {
            "bufferView" : 10,
            "componentType" : 5126,
            "count" : 32,
            "type" : "VEC3"
        },
        {
            "bufferView" : 11,
            "componentType" : 5123,
            "count" : 48,
            "type" : "SCALAR"
        },
        {
            "bufferView" : 12,
            "componentType" : 5126,
            "count" : 270,
            "max" : [
                1.1860315799713135,
                0.3759148120880127,
                1.5861024856567383
            ],
            "min" : [
                -1.1860318183898926,
                -0.2649255394935608,
                -1.0990228652954102
            ],
            "type" : "VEC3"
        },
        {
            "bufferView" : 13,
            "componentType" : 5126,
            "count" : 270,
            "type" : "VEC3"
        },
        {
            "bufferView" : 14,
            "componentType" : 5123,
            "count" : 420,
            "type" : "SCALAR"
        }
    ],
    "bufferViews" : [
        {
            "buffer" : 0,
            "byteLength" : 2808,
            "byteOffset" : 0
        },
        {
            "buffer" : 0,
            "byteLength" : 2808,
            "byteOffset" : 2808
        },
        {
            "buffer" : 0,
            "byteLength" : 780,
            "byteOffset" : 5616
        },
        {
            "buffer" : 0,
            "byteLength" : 240,
            "byteOffset" : 6396
        },
        {
            "buffer" : 0,
            "byteLength" : 240,
            "byteOffset" : 6636
        },
        {
            "buffer" : 0,
            "byteLength" : 60,
            "byteOffset" : 6876
        },
        {
            "buffer" : 0,
            "byteLength" : 216,
            "byteOffset" : 6936
        },
        {
            "buffer" : 0,
            "byteLength" : 216,
            "byteOffset" : 7152
        },
        {
            "buffer" : 0,
            "byteLength" : 60,
            "byteOffset" : 7368
        },
        {
            "buffer" : 0,
            "byteLength" : 384,
            "byteOffset" : 7428
        },
        {
            "buffer" : 0,
            "byteLength" : 384,
            "byteOffset" : 7812
        },
        {
            "buffer" : 0,
            "byteLength" : 96,
            "byteOffset" : 8196
        },
        {
            "buffer" : 0,
            "byteLength" : 3240,
            "byteOffset" : 8292
        },
        {
            "buffer" : 0,
            "byteLength" : 3240,
            "byteOffset" : 11532
        },
        {
            "buffer" : 0,
            "byteLength" : 840,
            "byteOffset" : 14772
        }
    ],
    "buffers" : [
        {
            "byteLength" : 15612,
            "uri" : "data:application/octet-stream;base64,"
        }
    ]
}
