{
    "asset" : {
        "generator" : "Khronos glTF Blender I/O v1.6.16",
        "version" : "2.0"
    },
    "scene" : 0,
    "scenes" : [
        {
            "name" : "Scene",
            "nodes" : [
                0
            ]
        }
    ],
    "nodes" : [
        {
            "mesh" : 0,
            "name" : "Cube.008",
            "scale" : [
                0.7684945464134216,
                0.8888334035873413,
                0.6491293907165527
            ],
            "translation" : [
                0,
                4.843009948730469,
                -0.9837965965270996
            ]
        }
    ],
    "materials" : [
        {
            "doubleSided" : true,
            "name" : "Material fundamebt.008",
            "pbrMetallicRoughness" : {
                "baseColorFactor" : [
                    0.24619391560554504,
                    0.22888779640197754,
                    0.1813199371099472,
                    1
                ],
                "metallicFactor" : 0,
                "roughnessFactor" : 0.5
            }
        },
        {
            "doubleSided" : true,
            "name" : "Material stena 2.008",
            "pbrMetallicRoughness" : {
                "baseColorFactor" : [
                    0.8688839673995972,
                    0.8688839673995972,
                    0.8688839673995972,
                    1
                ],
                "metallicFactor" : 0,
                "roughnessFactor" : 0.5
            }
        },
        {
            "doubleSided" : true,
            "name" : "Material.009",
            "pbrMetallicRoughness" : {
                "baseColorFactor" : [
                    0.05868297070264816,
                    0.08443106710910797,
                    0.14731444418430328,
                    1
                ],
                "metallicFactor" : 0,
                "roughnessFactor" : 0.5
            }
        },
        {
            "doubleSided" : true,
            "name" : "Material ramka.008",
            "pbrMetallicRoughness" : {
                "baseColorFactor" : [
                    0.5571717023849487,
                    0.5631878972053528,
                    0.5814633965492249,
                    1
                ],
                "metallicFactor" : 0,
                "roughnessFactor" : 0.5
            }
        }
    ],
    "meshes" : [
        {
            "name" : "Cube.009",
            "primitives" : [
                {
                    "attributes" : {
                        "POSITION" : 0,
                        "NORMAL" : 1
                    },
                    "indices" : 2,
                    "material" : 0
                },
                {
                    "attributes" : {
                        "POSITION" : 3,
                        "NORMAL" : 4
                    },
                    "indices" : 5,
                    "material" : 1
                },
                {
                    "attributes" : {
                        "POSITION" : 6,
                        "NORMAL" : 7
                    },
                    "indices" : 8,
                    "material" : 2
                },
                {
                    "attributes" : {
                        "POSITION" : 9,
                        "NORMAL" : 10
                    },
                    "indices" : 11,
                    "material" : 3
                }
            ]
        }
    ],
    "accessors" : [
        {
            "bufferView" : 0,
            "componentType" : 5126,
            "count" : 238,
            "max" : [
                1.3517667055130005,
                1.5542736053466797,
                3.5789358615875244
            ],
            "min" : [
                -1.3254233598709106,
                -1,
                -3.350104808807373
            ],
            "type" : "VEC3"
        },
        {
            "bufferView" : 1,
            "componentType" : 5126,
            "count" : 238,
            "type" : "VEC3"
        },
        {
            "bufferView" : 2,
            "componentType" : 5123,
            "count" : 360,
            "type" : "SCALAR"
        },
        {
            "bufferView" : 3,
            "componentType" : 5126,
            "count" : 290,
            "max" : [
                1.3048001527786255,
                1.6002519130706787,
                3.5809500217437744
            ],
            "min" : [
                -1.3513169288635254,
                -1.046669363975525,
                -3.3890304565429688
            ],
            "type" : "VEC3"
        },
        {
            "bufferView" : 4,
            "componentType" : 5126,
            "count" : 290,
            "type" : "VEC3"
        },
        {
            "bufferView" : 5,
            "componentType" : 5123,
            "count" : 492,
            "type" : "SCALAR"
        },
        {
            "bufferView" : 6,
            "componentType" : 5126,
            "count" : 192,
            "max" : [
                1.0261404514312744,
                1.8884859085083008,
                3.571819543838501
            ],
            "min" : [
                -0.5595983266830444,
                -0.8257359266281128,
                -3.3754124641418457
            ],
            "type" : "VEC3"
        },
        {
            "bufferView" : 7,
            "componentType" : 5126,
            "count" : 192,
            "type" : "VEC3"
        },
        {
            "bufferView" : 8,
            "componentType" : 5123,
            "count" : 288,
            "type" : "SCALAR"
        },
        {
            "bufferView" : 9,
            "componentType" : 5126,
            "count" : 2268,
            "max" : [
                1.2718337774276733,
                1.9931071996688843,
                3.5733540058135986
            ],
            "min" : [
                -0.8580103516578674,
                -1.0053496360778809,
                -3.3768844604492188
            ],
            "type" : "VEC3"
        },
        {
            "bufferView" : 10,
            "componentType" : 5126,
            "count" : 2268,
            "type" : "VEC3"
        },
        {
            "bufferView" : 11,
            "componentType" : 5123,
            "count" : 3738,
            "type" : "SCALAR"
        }
    ],
    "bufferViews" : [
        {
            "buffer" : 0,
            "byteLength" : 2856,
            "byteOffset" : 0
        },
        {
            "buffer" : 0,
            "byteLength" : 2856,
            "byteOffset" : 2856
        },
        {
            "buffer" : 0,
            "byteLength" : 720,
            "byteOffset" : 5712
        },
        {
            "buffer" : 0,
            "byteLength" : 3480,
            "byteOffset" : 6432
        },
        {
            "buffer" : 0,
            "byteLength" : 3480,
            "byteOffset" : 9912
        },
        {
            "buffer" : 0,
            "byteLength" : 984,
            "byteOffset" : 13392
        },
        {
            "buffer" : 0,
            "byteLength" : 2304,
            "byteOffset" : 14376
        },
        {
            "buffer" : 0,
            "byteLength" : 2304,
            "byteOffset" : 16680
        },
        {
            "buffer" : 0,
            "byteLength" : 576,
            "byteOffset" : 18984
        },
        {
            "buffer" : 0,
            "byteLength" : 27216,
            "byteOffset" : 19560
        },
        {
            "buffer" : 0,
            "byteLength" : 27216,
            "byteOffset" : 46776
        },
        {
            "buffer" : 0,
            "byteLength" : 7476,
            "byteOffset" : 73992
        }
    ],
    "buffers" : [
        {
            "byteLength" : 81468,
            "uri" : "data:application/octet-stream;base64,"
        }
    ]
}
