{
    "asset" : {
        "generator" : "Khronos glTF Blender I/O v1.6.16",
        "version" : "2.0"
    },
    "scene" : 0,
    "scenes" : [
        {
            "name" : "Scene",
            "nodes" : [
                0
            ]
        }
    ],
    "nodes" : [
        {
            "mesh" : 0,
            "name" : "Cube.011",
            "scale" : [
                0.6955234408378601,
                0.5677023530006409,
                0.7147520184516907
            ],
            "translation" : [
                0.5458452701568604,
                -1.3855538368225098,
                -9.3690824508667
            ]
        }
    ],
    "materials" : [
        {
            "doubleSided" : true,
            "name" : "Material stena.011",
            "pbrMetallicRoughness" : {
                "baseColorFactor" : [
                    0.3843735456466675,
                    0.31812405586242676,
                    0.09715653210878372,
                    1
                ],
                "metallicFactor" : 0,
                "roughnessFactor" : 0.5
            }
        },
        {
            "doubleSided" : true,
            "name" : "Material stena 2.011",
            "pbrMetallicRoughness" : {
                "baseColorFactor" : [
                    0.8688839673995972,
                    0.8688839673995972,
                    0.8688839673995972,
                    1
                ],
                "metallicFactor" : 0,
                "roughnessFactor" : 0.5
            }
        },
        {
            "doubleSided" : true,
            "name" : "Material fundamebt.011",
            "pbrMetallicRoughness" : {
                "baseColorFactor" : [
                    0.24619391560554504,
                    0.22888779640197754,
                    0.1813199371099472,
                    1
                ],
                "metallicFactor" : 0,
                "roughnessFactor" : 0.5
            }
        },
        {
            "doubleSided" : true,
            "name" : "Material.012",
            "pbrMetallicRoughness" : {
                "baseColorFactor" : [
                    0.05868297070264816,
                    0.08443106710910797,
                    0.14731444418430328,
                    1
                ],
                "metallicFactor" : 0,
                "roughnessFactor" : 0.5
            }
        },
        {
            "doubleSided" : true,
            "name" : "Material ramka.011",
            "pbrMetallicRoughness" : {
                "baseColorFactor" : [
                    0.5571717023849487,
                    0.5631878972053528,
                    0.5814633965492249,
                    1
                ],
                "metallicFactor" : 0,
                "roughnessFactor" : 0.5
            }
        },
        {
            "doubleSided" : true,
            "name" : "pizza 1.002",
            "pbrMetallicRoughness" : {
                "baseColorFactor" : [
                    0.16794824600219727,
                    0.12611939013004303,
                    0.02521197870373726,
                    1
                ],
                "metallicFactor" : 0,
                "roughnessFactor" : 0.5
            }
        },
        {
            "doubleSided" : true,
            "name" : "Material red.001",
            "pbrMetallicRoughness" : {
                "baseColorFactor" : [
                    0.6981911063194275,
                    0.016772815957665443,
                    0.003022173885256052,
                    1
                ],
                "metallicFactor" : 0,
                "roughnessFactor" : 0.5
            }
        }
    ],
    "meshes" : [
        {
            "name" : "Cube.012",
            "primitives" : [
                {
                    "attributes" : {
                        "POSITION" : 0,
                        "NORMAL" : 1
                    },
                    "indices" : 2,
                    "material" : 0
                },
                {
                    "attributes" : {
                        "POSITION" : 3,
                        "NORMAL" : 4
                    },
                    "indices" : 5,
                    "material" : 1
                },
                {
                    "attributes" : {
                        "POSITION" : 6,
                        "NORMAL" : 7
                    },
                    "indices" : 8,
                    "material" : 2
                },
                {
                    "attributes" : {
                        "POSITION" : 9,
                        "NORMAL" : 10
                    },
                    "indices" : 11,
                    "material" : 3
                },
                {
                    "attributes" : {
                        "POSITION" : 12,
                        "NORMAL" : 13
                    },
                    "indices" : 14,
                    "material" : 4
                },
                {
                    "attributes" : {
                        "POSITION" : 15,
                        "NORMAL" : 16
                    },
                    "indices" : 17,
                    "material" : 5
                },
                {
                    "attributes" : {
                        "POSITION" : 18,
                        "NORMAL" : 19
                    },
                    "indices" : 20,
                    "material" : 6
                }
            ]
        }
    ],
    "accessors" : [
        {
            "bufferView" : 0,
            "componentType" : 5126,
            "count" : 99,
            "max" : [
                1.0124459266662598,
                0.5933783650398254,
                1.568934679031372
            ],
            "min" : [
                -1,
                -1,
                -1.4967224597930908
            ],
            "type" : "VEC3"
        },
        {
            "bufferView" : 1,
            "componentType" : 5126,
            "count" : 99,
            "type" : "VEC3"
        },
        {
            "bufferView" : 2,
            "componentType" : 5123,
            "count" : 153,
            "type" : "SCALAR"
        },
        {
            "bufferView" : 3,
            "componentType" : 5126,
            "count" : 127,
            "max" : [
                1.1393516063690186,
                0.5314401388168335,
                1.5793673992156982
            ],
            "min" : [
                -1.0141308307647705,
                -1.0801562070846558,
                -1.6056156158447266
            ],
            "type" : "VEC3"
        },
        {
            "bufferView" : 4,
            "componentType" : 5126,
            "count" : 127,
            "type" : "VEC3"
        },
        {
            "bufferView" : 5,
            "componentType" : 5123,
            "count" : 231,
            "type" : "SCALAR"
        },
        {
            "bufferView" : 6,
            "componentType" : 5126,
            "count" : 294,
            "max" : [
                1.0124459266662598,
                0.5572468042373657,
                1.568934679031372
            ],
            "min" : [
                -1,
                -1.0801562070846558,
                -1.496975302696228
            ],
            "type" : "VEC3"
        },
        {
            "bufferView" : 7,
            "componentType" : 5126,
            "count" : 294,
            "type" : "VEC3"
        },
        {
            "bufferView" : 8,
            "componentType" : 5123,
            "count" : 444,
            "type" : "SCALAR"
        },
        {
            "bufferView" : 9,
            "componentType" : 5126,
            "count" : 40,
            "max" : [
                1.0186991691589355,
                -0.2527102530002594,
                1.5840942859649658
            ],
            "min" : [
                -0.8279052972793579,
                -0.6853076219558716,
                -1.501008152961731
            ],
            "type" : "VEC3"
        },
        {
            "bufferView" : 10,
            "componentType" : 5126,
            "count" : 40,
            "type" : "VEC3"
        },
        {
            "bufferView" : 11,
            "componentType" : 5123,
            "count" : 60,
            "type" : "SCALAR"
        },
        {
            "bufferView" : 12,
            "componentType" : 5126,
            "count" : 438,
            "max" : [
                1.0200728178024292,
                0.6714266538619995,
                1.5854308605194092
            ],
            "min" : [
                -0.839362621307373,
                -1.0074436664581299,
                -1.5023449659347534
            ],
            "type" : "VEC3"
        },
        {
            "bufferView" : 13,
            "componentType" : 5126,
            "count" : 438,
            "type" : "VEC3"
        },
        {
            "bufferView" : 14,
            "componentType" : 5123,
            "count" : 690,
            "type" : "SCALAR"
        },
        {
            "bufferView" : 15,
            "componentType" : 5126,
            "count" : 48,
            "max" : [
                0.65787672996521,
                1.54109525680542,
                -0.9643324017524719
            ],
            "min" : [
                0.581750750541687,
                0.34174662828445435,
                -1.2084146738052368
            ],
            "type" : "VEC3"
        },
        {
            "bufferView" : 16,
            "componentType" : 5126,
            "count" : 48,
            "type" : "VEC3"
        },
        {
            "bufferView" : 17,
            "componentType" : 5123,
            "count" : 72,
            "type" : "SCALAR"
        },
        {
            "bufferView" : 18,
            "componentType" : 5126,
            "count" : 660,
            "max" : [
                1.1800634860992432,
                0.03764457255601883,
                1.4354982376098633
            ],
            "min" : [
                -0.9776777625083923,
                -0.1776445508003235,
                -1.6384888887405396
            ],
            "type" : "VEC3"
        },
        {
            "bufferView" : 19,
            "componentType" : 5126,
            "count" : 660,
            "type" : "VEC3"
        },
        {
            "bufferView" : 20,
            "componentType" : 5123,
            "count" : 660,
            "type" : "SCALAR"
        }
    ],
    "bufferViews" : [
        {
            "buffer" : 0,
            "byteLength" : 1188,
            "byteOffset" : 0
        },
        {
            "buffer" : 0,
            "byteLength" : 1188,
            "byteOffset" : 1188
        },
        {
            "buffer" : 0,
            "byteLength" : 306,
            "byteOffset" : 2376
        },
        {
            "buffer" : 0,
            "byteLength" : 1524,
            "byteOffset" : 2684
        },
        {
            "buffer" : 0,
            "byteLength" : 1524,
            "byteOffset" : 4208
        },
        {
            "buffer" : 0,
            "byteLength" : 462,
            "byteOffset" : 5732
        },
        {
            "buffer" : 0,
            "byteLength" : 3528,
            "byteOffset" : 6196
        },
        {
            "buffer" : 0,
            "byteLength" : 3528,
            "byteOffset" : 9724
        },
        {
            "buffer" : 0,
            "byteLength" : 888,
            "byteOffset" : 13252
        },
        {
            "buffer" : 0,
            "byteLength" : 480,
            "byteOffset" : 14140
        },
        {
            "buffer" : 0,
            "byteLength" : 480,
            "byteOffset" : 14620
        },
        {
            "buffer" : 0,
            "byteLength" : 120,
            "byteOffset" : 15100
        },
        {
            "buffer" : 0,
            "byteLength" : 5256,
            "byteOffset" : 15220
        },
        {
            "buffer" : 0,
            "byteLength" : 5256,
            "byteOffset" : 20476
        },
        {
            "buffer" : 0,
            "byteLength" : 1380,
            "byteOffset" : 25732
        },
        {
            "buffer" : 0,
            "byteLength" : 576,
            "byteOffset" : 27112
        },
        {
            "buffer" : 0,
            "byteLength" : 576,
            "byteOffset" : 27688
        },
        {
            "buffer" : 0,
            "byteLength" : 144,
            "byteOffset" : 28264
        },
        {
            "buffer" : 0,
            "byteLength" : 7920,
            "byteOffset" : 28408
        },
        {
            "buffer" : 0,
            "byteLength" : 7920,
            "byteOffset" : 36328
        },
        {
            "buffer" : 0,
            "byteLength" : 1320,
            "byteOffset" : 44248
        }
    ],
    "buffers" : [
        {
            "byteLength" : 45568,
            "uri" : "data:application/octet-stream;base64,"
        }
    ]
}
