{
    "asset" : {
        "generator" : "Khronos glTF Blender I/O v1.6.16",
        "version" : "2.0"
    },
    "scene" : 0,
    "scenes" : [
        {
            "name" : "Scene",
            "nodes" : [
                1
            ]
        }
    ],
    "nodes" : [
        {
            "mesh" : 0,
            "name" : "Plane.002",
            "rotation" : [
                0.5000000596046448,
                -0.4999999403953552,
                -0.5,
                0.5000000596046448
            ],
            "translation" : [
                -0.016309380531311035,
                0.8197101950645447,
                0.19839394092559814
            ]
        },
        {
            "children" : [
                0
            ],
            "name" : "Traffic Barrier Guardrail Type 02",
            "scale" : [
                0.6053913831710815,
                0.6053913831710815,
                0.6053913831710815
            ]
        }
    ],
    "materials" : [
        {
            "doubleSided" : true,
            "name" : "iron galvanized matte",
            "normalTexture" : {
                "index" : 0
            },
            "pbrMetallicRoughness" : {
                "baseColorTexture" : {
                    "index" : 1
                },
                "metallicRoughnessTexture" : {
                    "index" : 2
                }
            }
        }
    ],
    "meshes" : [
        {
            "name" : "Plane.009",
            "primitives" : [
                {
                    "attributes" : {
                        "POSITION" : 0,
                        "NORMAL" : 1,
                        "TEXCOORD_0" : 2,
                        "TEXCOORD_1" : 3
                    },
                    "indices" : 4,
                    "material" : 0
                }
            ]
        }
    ],
    "textures" : [
        {
            "sampler" : 0,
            "source" : 0
        },
        {
            "sampler" : 0,
            "source" : 1
        },
        {
            "sampler" : 0,
            "source" : 2
        }
    ],
    "images" : [
        {
            "bufferView" : 5,
            "mimeType" : "image/jpeg",
            "name" : "iron galvanized matte_normal"
        },
        {
            "bufferView" : 6,
            "mimeType" : "image/jpeg",
            "name" : "iron galvanized matte_albedo"
        },
        {
            "bufferView" : 7,
            "mimeType" : "image/png",
            "name" : "iron galvanized matte_metallic-iron galvanized matte_roughness"
        }
    ],
    "accessors" : [
        {
            "bufferView" : 0,
            "componentType" : 5126,
            "count" : 5682,
            "max" : [
                0.8218117952346802,
                0.1890815794467926,
                1.6874644756317139
            ],
            "min" : [
                -0.42088717222213745,
                -0.19345331192016602,
                -1.6777417659759521
            ],
            "type" : "VEC3"
        },
        {
            "bufferView" : 1,
            "componentType" : 5126,
            "count" : 5682,
            "type" : "VEC3"
        },
        {
            "bufferView" : 2,
            "componentType" : 5126,
            "count" : 5682,
            "type" : "VEC2"
        },
        {
            "bufferView" : 3,
            "componentType" : 5126,
            "count" : 5682,
            "type" : "VEC2"
        },
        {
            "bufferView" : 4,
            "componentType" : 5123,
            "count" : 22020,
            "type" : "SCALAR"
        }
    ],
    "bufferViews" : [
        {
            "buffer" : 0,
            "byteLength" : 68184,
            "byteOffset" : 0
        },
        {
            "buffer" : 0,
            "byteLength" : 68184,
            "byteOffset" : 68184
        },
        {
            "buffer" : 0,
            "byteLength" : 45456,
            "byteOffset" : 136368
        },
        {
            "buffer" : 0,
            "byteLength" : 45456,
            "byteOffset" : 181824
        },
        {
            "buffer" : 0,
            "byteLength" : 44040,
            "byteOffset" : 227280
        },
        {
            "buffer" : 0,
            "byteLength" : 131809,
            "byteOffset" : 271320
        },
        {
            "buffer" : 0,
            "byteLength" : 233753,
            "byteOffset" : 403132
        },
        {
            "buffer" : 0,
            "byteLength" : 1855435,
            "byteOffset" : 636888
        }
    ],
    "samplers" : [
        {
            "magFilter" : 9729,
            "minFilter" : 9987
        }
    ],
    "buffers" : [
        {
            "byteLength" : 2492324,
            "uri" : "data:application/octet-stream;base64,"
        }
    ]
}
