{
    "asset" : {
        "generator" : "Khronos glTF Blender I/O v1.6.16",
        "version" : "2.0"
    },
    "scene" : 0,
    "scenes" : [
        {
            "name" : "Scene",
            "nodes" : [
                0
            ]
        }
    ],
    "nodes" : [
        {
            "mesh" : 0,
            "name" : "map_12.osm_roads_residential",
            "translation" : [
                0,
                0.30000001192092896,
                0
            ]
        }
    ],
    "materials" : [
        {
            "doubleSided" : true,
            "name" : "roads_residential",
            "pbrMetallicRoughness" : {
                "baseColorFactor" : [
                    0.08649999648332596,
                    0.09084200114011765,
                    0.0886560007929802,
                    1
                ],
                "metallicFactor" : 0,
                "roughnessFactor" : 0.4000000059604645
            }
        }
    ],
    "meshes" : [
        {
            "name" : "map_12.osm_roads_residential",
            "primitives" : [
                {
                    "attributes" : {
                        "POSITION" : 0,
                        "NORMAL" : 1,
                        "TEXCOORD_0" : 2
                    },
                    "indices" : 3,
                    "material" : 0
                }
            ]
        }
    ],
    "accessors" : [
        {
            "bufferView" : 0,
            "componentType" : 5126,
            "count" : 828,
            "max" : [
                457.6813049316406,
                0,
                1151.002685546875
            ],
            "min" : [
                -679.173583984375,
                0,
                -687.6182250976562
            ],
            "type" : "VEC3"
        },
        {
            "bufferView" : 1,
            "componentType" : 5126,
            "count" : 828,
            "type" : "VEC3"
        },
        {
            "bufferView" : 2,
            "componentType" : 5126,
            "count" : 828,
            "type" : "VEC2"
        },
        {
            "bufferView" : 3,
            "componentType" : 5123,
            "count" : 2172,
            "type" : "SCALAR"
        }
    ],
    "bufferViews" : [
        {
            "buffer" : 0,
            "byteLength" : 9936,
            "byteOffset" : 0
        },
        {
            "buffer" : 0,
            "byteLength" : 9936,
            "byteOffset" : 9936
        },
        {
            "buffer" : 0,
            "byteLength" : 6624,
            "byteOffset" : 19872
        },
        {
            "buffer" : 0,
            "byteLength" : 4344,
            "byteOffset" : 26496
        }
    ],
    "buffers" : [
        {
            "byteLength" : 30840,
            "uri" : "data:application/octet-stream;base64,"
        }
    ]
}
